<?xml version="1.0" encoding="utf-8"?>
<!-- Generator: Adobe Illustrator 16.0.0, SVG Export Plug-In . SVG Version: 6.00 Build 0)  -->
<!DOCTYPE svg PUBLIC "-//W3C//DTD SVG 1.1//EN" "http://www.w3.org/Graphics/SVG/1.1/DTD/svg11.dtd">
<svg version="1.1" id="Layer_1" xmlns="http://www.w3.org/2000/svg" xmlns:xlink="http://www.w3.org/1999/xlink" x="0px" y="0px"
	 width="72px" height="22px" viewBox="0 0 72 22" enable-background="new 0 0 72 22" xml:space="preserve">
<g>
	<g>
		<path fill="#414042" d="M26.726,16.352h-0.543v-1.344h-1.526v1.344h-0.541v-2.979h0.541v1.219h1.526v-1.219h0.543V16.352z"/>
		<path fill="#414042" d="M30.998,14.855c0,0.484-0.134,0.86-0.403,1.131c-0.27,0.27-0.65,0.404-1.144,0.404
			c-0.5,0-0.883-0.135-1.151-0.4c-0.268-0.268-0.401-0.646-0.401-1.139c0-0.494,0.134-0.867,0.403-1.132
			c0.269-0.265,0.654-0.396,1.153-0.396c0.492,0,0.872,0.134,1.141,0.4C30.865,13.992,30.998,14.371,30.998,14.855z M28.473,14.855
			c0,0.367,0.083,0.646,0.247,0.834c0.165,0.188,0.409,0.285,0.731,0.285c0.321,0,0.564-0.095,0.728-0.281
			c0.164-0.188,0.245-0.467,0.245-0.838c0-0.364-0.081-0.643-0.243-0.83c-0.162-0.188-0.404-0.283-0.726-0.283
			c-0.324,0-0.569,0.095-0.734,0.283C28.556,14.215,28.473,14.491,28.473,14.855z"/>
		<path fill="#414042" d="M32.174,16.352v-2.979h0.541v2.563h1.4v0.418h-1.941V16.352z"/>
		<path fill="#414042" d="M37.839,14.832c0,0.492-0.149,0.868-0.455,1.128c-0.303,0.261-0.737,0.392-1.312,0.392h-0.924v-2.979
			h1.022c0.524,0,0.937,0.128,1.229,0.383S37.839,14.369,37.839,14.832z M37.271,14.85c0-0.713-0.371-1.069-1.111-1.069h-0.471
			v2.161h0.386C36.872,15.941,37.271,15.576,37.271,14.85z"/>
		<path fill="#414042" d="M39.016,16.352v-2.979h0.539v2.979H39.016z"/>
		<path fill="#414042" d="M43.648,16.352h-0.662l-1.629-2.373H41.34l0.012,0.131c0.021,0.252,0.031,0.483,0.031,0.693v1.549h-0.49
			v-2.979h0.656l1.623,2.359h0.014c-0.004-0.03-0.01-0.146-0.018-0.342c-0.012-0.195-0.016-0.349-0.016-0.459v-1.561h0.496V16.352
			L43.648,16.352z"/>
		<path fill="#414042" d="M46.34,14.734h1.219v1.494c-0.199,0.061-0.391,0.102-0.576,0.125c-0.182,0.023-0.381,0.037-0.592,0.037
			c-0.502,0-0.889-0.135-1.16-0.4c-0.271-0.268-0.405-0.643-0.405-1.129c0-0.479,0.151-0.855,0.459-1.127
			c0.307-0.271,0.729-0.405,1.266-0.405c0.347,0,0.675,0.062,0.982,0.179l-0.189,0.406c-0.271-0.111-0.538-0.167-0.809-0.167
			c-0.353,0-0.632,0.101-0.836,0.299c-0.205,0.2-0.31,0.474-0.31,0.819c0,0.363,0.094,0.641,0.277,0.83
			c0.184,0.188,0.449,0.283,0.799,0.283c0.176,0,0.359-0.021,0.561-0.061V15.15H46.34V14.734z"/>
		<path fill="#414042" d="M50.725,15.541c0,0.266-0.106,0.473-0.32,0.624c-0.213,0.149-0.506,0.226-0.881,0.226
			c-0.373,0-0.68-0.053-0.918-0.156v-0.461c0.15,0.063,0.313,0.115,0.48,0.15c0.17,0.037,0.328,0.057,0.475,0.057
			c0.215,0,0.373-0.037,0.476-0.108c0.103-0.074,0.151-0.174,0.151-0.296c0-0.111-0.047-0.206-0.141-0.283s-0.287-0.169-0.578-0.273
			c-0.305-0.109-0.518-0.235-0.641-0.377c-0.123-0.144-0.186-0.313-0.186-0.511c0-0.249,0.098-0.442,0.295-0.587
			c0.194-0.145,0.459-0.214,0.791-0.214c0.315,0,0.631,0.063,0.942,0.188l-0.17,0.396c-0.295-0.111-0.56-0.167-0.787-0.167
			c-0.176,0-0.312,0.034-0.399,0.104c-0.09,0.067-0.135,0.157-0.135,0.271c0,0.078,0.018,0.146,0.055,0.198
			c0.035,0.056,0.094,0.107,0.18,0.156c0.08,0.049,0.23,0.112,0.445,0.192c0.244,0.093,0.422,0.177,0.535,0.255
			c0.112,0.078,0.194,0.167,0.25,0.268C50.697,15.29,50.725,15.407,50.725,15.541z"/>
	</g>
	<g>
		<path fill="#414042" d="M24.116,11.829v-6.22h0.496v3.776l4.03-3.776h0.574l-2.871,2.725l3.018,3.495h-0.565l-2.773-3.224
			l-1.413,1.306v1.918H24.116z"/>
		<path fill="#414042" d="M34.999,11.427v0.402h-4.605v-6.22h4.517v0.403H30.89v2.444h3.514v0.385H30.89v2.585L34.999,11.427
			L34.999,11.427z"/>
		<path fill="#414042" d="M42.709,11.829V6.451l-2.729,4.195h-0.313l-2.725-4.195v5.378h-0.496v-6.22h0.496l2.881,4.45l2.884-4.45
			h0.494v6.22H42.709z"/>
		<path fill="#414042" d="M50.203,10.218c0,0.228-0.049,0.439-0.146,0.636c-0.096,0.195-0.229,0.366-0.397,0.513
			c-0.168,0.146-0.365,0.26-0.595,0.342c-0.227,0.082-0.467,0.122-0.721,0.122h-3.23V5.61h3.224c0.238,0,0.457,0.047,0.649,0.141
			c0.195,0.094,0.361,0.215,0.496,0.363c0.138,0.149,0.242,0.318,0.316,0.509c0.074,0.189,0.111,0.381,0.111,0.572
			c0,0.315-0.088,0.604-0.262,0.867c-0.176,0.265-0.42,0.457-0.73,0.578c0.396,0.105,0.711,0.303,0.939,0.592
			C50.088,9.521,50.203,9.85,50.203,10.218z M45.607,6.013v2.488h2.531c0.188,0,0.36-0.035,0.516-0.104
			c0.156-0.069,0.291-0.162,0.404-0.275c0.112-0.114,0.203-0.247,0.268-0.398c0.064-0.152,0.1-0.308,0.1-0.465
			c0-0.17-0.033-0.328-0.094-0.478c-0.063-0.148-0.146-0.28-0.254-0.396c-0.105-0.113-0.234-0.204-0.385-0.271
			c-0.148-0.067-0.314-0.101-0.496-0.101H45.607z M49.707,10.157c0-0.164-0.033-0.323-0.098-0.478
			c-0.064-0.156-0.156-0.293-0.271-0.412c-0.117-0.121-0.256-0.216-0.414-0.285c-0.16-0.07-0.33-0.104-0.512-0.104h-2.805v2.549
			h2.735c0.195,0,0.373-0.034,0.539-0.104c0.166-0.069,0.31-0.164,0.431-0.284c0.119-0.12,0.215-0.256,0.287-0.407
			C49.67,10.479,49.707,10.32,49.707,10.157z"/>
		<path fill="#414042" d="M53.678,5.609h0.428l2.92,6.22h-0.522l-0.965-2.05h-3.302l-0.963,2.05h-0.535L53.678,5.609z M55.4,9.412
			l-1.508-3.259l-1.539,3.259H55.4z"/>
		<path fill="#414042" d="M58.174,11.829v-6.22h2.871c0.293,0,0.563,0.056,0.809,0.167c0.246,0.111,0.459,0.259,0.638,0.442
			c0.18,0.183,0.317,0.392,0.42,0.622s0.149,0.463,0.149,0.696c0,0.228-0.039,0.448-0.115,0.661
			c-0.079,0.214-0.188,0.404-0.332,0.574c-0.143,0.17-0.313,0.31-0.516,0.42c-0.203,0.11-0.424,0.185-0.662,0.22l1.722,2.417h-0.572
			L60.909,9.48h-2.236v2.348L58.174,11.829L58.174,11.829z M58.672,9.07h2.424c0.221,0,0.422-0.045,0.604-0.133
			c0.182-0.086,0.336-0.201,0.469-0.346c0.129-0.144,0.229-0.307,0.295-0.49c0.068-0.185,0.104-0.371,0.104-0.564
			c0-0.198-0.041-0.391-0.121-0.573c-0.082-0.185-0.191-0.347-0.332-0.487s-0.301-0.252-0.484-0.337
			c-0.188-0.084-0.387-0.127-0.6-0.127h-2.355V9.07H58.672z"/>
		<path fill="#414042" d="M66.652,5.609h0.428l2.922,6.22h-0.525l-0.965-2.05h-3.299l-0.963,2.05h-0.535L66.652,5.609z
			 M68.375,9.412l-1.508-3.259l-1.539,3.259H68.375z"/>
	</g>
</g>
<g>
	<path fill="#FFFFFF" d="M10.541,0.976c-5.526,0-10.023,4.496-10.023,10.023c0,5.528,4.497,10.025,10.023,10.025
		c5.528,0,10.025-4.497,10.025-10.025C20.566,5.472,16.069,0.976,10.541,0.976z"/>
	<path fill="#917F54" d="M9.019,12.145C8.301,12.94,7.704,13.6,7.112,14.264c-0.597,0.668-1.212,1.321-1.774,2.018
		c-0.297,0.367-0.671,0.486-1.034,0.323c-0.161-0.073-0.228-0.496-0.229-0.761C4.061,12.218,4.072,8.593,4.058,4.968
		c0-0.103-0.013-0.501,0-0.6C2.334,6.053,1.262,8.4,1.262,10.999c0,5.125,4.155,9.279,9.279,9.279c1.859,0,3.586-0.551,5.037-1.492
		C15.403,18.663,9.196,12.398,9.019,12.145z"/>
	<g>
		<path fill="#929497" d="M7.39,12.038c0.072,0.033,0.143,0.066,0.213,0.099c2.857-2.834,5.714-5.667,8.571-8.5
			C14.61,2.439,12.662,1.72,10.541,1.72c-1.115,0-2.18,0.207-3.17,0.568C7.377,2.292,7.384,2.297,7.39,2.301
			C7.39,5.547,7.39,8.792,7.39,12.038z"/>
		<path fill="#929497" d="M18.047,16.439c1.111-1.529,1.773-3.405,1.773-5.44c0-2.904-1.336-5.494-3.424-7.196
			c-1.734,1.958-3.467,3.916-5.223,5.898C13.432,11.93,15.698,14.121,18.047,16.439z"/>
	</g>
	<g>
		<path fill="#917F54" d="M10.541,21.542C4.729,21.542,0,16.813,0,10.999C0,5.187,4.729,0.458,10.541,0.458
			c5.813,0,10.543,4.729,10.543,10.541C21.084,16.813,16.354,21.542,10.541,21.542z M10.541,0.976
			c-5.526,0-10.023,4.496-10.023,10.023c0,5.528,4.497,10.025,10.023,10.025c5.528,0,10.025-4.497,10.025-10.025
			C20.566,5.472,16.069,0.976,10.541,0.976z"/>
	</g>
</g>
</svg>
